<svg viewBox="255.7132 287.3078 424.5736 83.3844" width="5000" height="981.9781540821191" xmlns="http://www.w3.org/2000/svg" xmlns:xlink="http://www.w3.org/1999/xlink" preserveAspectRatio="none"><defs></defs><style>.aD6z1nYkhcolor {fill:#0E0D0E;fill-opacity:1;}.aIptOCySncolors-0 {fill:#AC36D9;fill-opacity:1;}</style><g opacity="1" transform="rotate(0 255.7132 287.3078)">
<svg width="77.2824" height="83.3844" x="255.7132" y="287.3078" version="1.1" preserveAspectRatio="none" viewBox="3.545999526977539 -0.02487506903707981 92.90799713134766 100.24386596679688">
  <g transform="matrix(1 0 0 1 0 0)" class="aIptOCySncolors-0"><path d="M96.447,57.303c-0.001-0.013-0.003-0.025-0.004-0.038c-0.005-0.058-0.01-0.116-0.017-0.173  c-0.003-0.022-0.007-0.043-0.011-0.064c-0.007-0.048-0.014-0.096-0.024-0.143c-0.005-0.026-0.012-0.051-0.018-0.077  c-0.01-0.042-0.019-0.085-0.03-0.127c-0.008-0.029-0.018-0.058-0.027-0.087c-0.011-0.037-0.022-0.075-0.034-0.112  c-0.011-0.031-0.023-0.061-0.035-0.092c-0.013-0.034-0.025-0.069-0.039-0.103c-0.013-0.031-0.028-0.061-0.041-0.091  c-0.015-0.033-0.029-0.066-0.045-0.098c-0.015-0.031-0.032-0.06-0.048-0.09c-0.017-0.031-0.032-0.063-0.05-0.093  c-0.017-0.03-0.036-0.058-0.054-0.088c-0.018-0.03-0.036-0.059-0.055-0.088c-0.019-0.029-0.04-0.056-0.06-0.084  c-0.02-0.028-0.039-0.057-0.061-0.084c-0.021-0.027-0.043-0.053-0.065-0.079c-0.022-0.027-0.044-0.055-0.067-0.082  c-0.022-0.025-0.046-0.049-0.069-0.074c-0.024-0.026-0.048-0.053-0.073-0.078c-0.024-0.024-0.05-0.047-0.074-0.07  c-0.026-0.024-0.052-0.05-0.078-0.073c-0.025-0.022-0.052-0.043-0.078-0.065c-0.028-0.023-0.056-0.047-0.084-0.069  c-0.027-0.021-0.055-0.04-0.083-0.06c-0.03-0.021-0.059-0.043-0.089-0.064c-0.029-0.019-0.059-0.037-0.088-0.055  c-0.028-0.018-0.055-0.036-0.084-0.053c-0.003-0.002-0.006-0.003-0.009-0.005c-0.003-0.002-0.006-0.004-0.009-0.005L91.33,52.73  V31.397c0-0.029-0.004-0.058-0.004-0.087c-0.002-0.066-0.004-0.133-0.01-0.198c-0.004-0.049-0.011-0.097-0.018-0.146  c-0.007-0.052-0.014-0.105-0.024-0.156c-0.01-0.057-0.024-0.113-0.037-0.169c-0.011-0.043-0.021-0.086-0.033-0.129  c-0.017-0.059-0.036-0.116-0.056-0.173c-0.014-0.04-0.028-0.08-0.044-0.12c-0.022-0.054-0.045-0.108-0.07-0.161  c-0.019-0.042-0.039-0.084-0.061-0.126c-0.024-0.047-0.05-0.093-0.076-0.138c-0.027-0.046-0.054-0.092-0.083-0.137  c-0.025-0.039-0.052-0.076-0.078-0.114c-0.034-0.048-0.069-0.095-0.106-0.142c-0.026-0.033-0.054-0.065-0.082-0.097  c-0.04-0.046-0.08-0.092-0.123-0.135c-0.031-0.032-0.063-0.062-0.095-0.092c-0.042-0.04-0.084-0.079-0.128-0.117  c-0.04-0.034-0.082-0.066-0.124-0.098c-0.039-0.03-0.077-0.06-0.118-0.088c-0.054-0.038-0.111-0.073-0.168-0.108  c-0.025-0.015-0.047-0.032-0.073-0.046L71.425,18.16v-4.564c0-0.071-0.003-0.142-0.007-0.213c-0.001-0.022-0.005-0.044-0.006-0.066  c-0.004-0.049-0.008-0.097-0.015-0.145c-0.004-0.028-0.01-0.056-0.014-0.085c-0.007-0.041-0.012-0.082-0.02-0.123  c-0.006-0.031-0.015-0.061-0.022-0.091c-0.009-0.038-0.017-0.076-0.027-0.113c-0.008-0.031-0.018-0.06-0.028-0.09  c-0.011-0.036-0.021-0.073-0.033-0.109c-0.01-0.03-0.023-0.06-0.034-0.089c-0.013-0.035-0.026-0.07-0.04-0.105  c-0.012-0.03-0.026-0.058-0.04-0.087c-0.015-0.034-0.03-0.068-0.046-0.101c-0.014-0.028-0.03-0.056-0.045-0.084  c-0.018-0.033-0.034-0.066-0.053-0.099c-0.016-0.027-0.033-0.054-0.05-0.08c-0.02-0.032-0.039-0.064-0.059-0.095  c-0.017-0.026-0.037-0.051-0.055-0.077c-0.022-0.031-0.043-0.062-0.066-0.092c-0.019-0.025-0.04-0.049-0.06-0.074  c-0.024-0.029-0.047-0.059-0.072-0.087c-0.021-0.024-0.044-0.047-0.066-0.071c-0.025-0.027-0.05-0.055-0.076-0.081  c-0.023-0.023-0.047-0.045-0.071-0.067c-0.027-0.025-0.054-0.052-0.081-0.076c-0.025-0.022-0.051-0.042-0.076-0.063  c-0.029-0.024-0.057-0.048-0.086-0.071c-0.026-0.02-0.054-0.039-0.082-0.059c-0.03-0.022-0.06-0.044-0.09-0.065  c-0.028-0.019-0.058-0.037-0.087-0.055c-0.028-0.018-0.056-0.036-0.085-0.053c-0.003-0.002-0.006-0.003-0.009-0.005  c-0.003-0.002-0.006-0.004-0.009-0.005L51.588,0.397c-0.984-0.563-2.192-0.562-3.175,0L30.187,10.813  c-0.004,0.002-0.007,0.004-0.011,0.007c-0.002,0.001-0.005,0.002-0.007,0.004c-0.024,0.014-0.046,0.029-0.069,0.043  c-0.035,0.021-0.07,0.042-0.104,0.065c-0.026,0.017-0.051,0.037-0.077,0.055c-0.032,0.023-0.064,0.045-0.095,0.068  c-0.026,0.02-0.051,0.042-0.077,0.063c-0.028,0.023-0.057,0.046-0.085,0.07c-0.026,0.023-0.051,0.048-0.077,0.072  c-0.025,0.024-0.051,0.047-0.076,0.072c-0.025,0.026-0.049,0.052-0.074,0.079c-0.023,0.024-0.046,0.048-0.068,0.073  c-0.025,0.028-0.048,0.058-0.071,0.087c-0.02,0.025-0.041,0.049-0.061,0.074c-0.023,0.03-0.045,0.062-0.067,0.093  c-0.018,0.025-0.037,0.05-0.054,0.076c-0.021,0.031-0.04,0.064-0.06,0.096c-0.017,0.027-0.034,0.053-0.05,0.08  c-0.018,0.032-0.035,0.065-0.052,0.098c-0.015,0.028-0.031,0.056-0.045,0.085c-0.016,0.033-0.031,0.067-0.046,0.1  c-0.014,0.03-0.028,0.059-0.04,0.089c-0.014,0.033-0.026,0.068-0.039,0.102c-0.012,0.031-0.024,0.061-0.035,0.093  c-0.011,0.033-0.021,0.068-0.031,0.101c-0.01,0.033-0.021,0.065-0.03,0.098c-0.009,0.034-0.016,0.068-0.024,0.102  c-0.008,0.034-0.017,0.067-0.024,0.101c-0.007,0.035-0.012,0.071-0.018,0.106c-0.006,0.034-0.012,0.067-0.017,0.101  c-0.005,0.039-0.008,0.078-0.012,0.117c-0.003,0.031-0.007,0.062-0.009,0.094c-0.003,0.051-0.004,0.103-0.005,0.154  c0,0.02-0.002,0.039-0.002,0.059v0v0v4.563L10.282,28.609c-0.026,0.015-0.05,0.033-0.076,0.049  c-0.055,0.034-0.111,0.068-0.164,0.105c-0.042,0.029-0.081,0.06-0.121,0.091C9.88,28.884,9.84,28.915,9.8,28.949  c-0.045,0.038-0.088,0.079-0.131,0.119c-0.031,0.03-0.062,0.059-0.093,0.09c-0.043,0.045-0.084,0.091-0.125,0.137  c-0.027,0.031-0.054,0.063-0.08,0.095c-0.037,0.047-0.073,0.095-0.107,0.143c-0.027,0.037-0.053,0.074-0.077,0.112  c-0.029,0.045-0.057,0.091-0.084,0.137c-0.026,0.045-0.052,0.091-0.076,0.137c-0.021,0.042-0.041,0.084-0.061,0.126  c-0.024,0.053-0.048,0.106-0.07,0.161c-0.016,0.04-0.03,0.08-0.044,0.12c-0.02,0.058-0.04,0.115-0.056,0.174  c-0.012,0.042-0.022,0.085-0.033,0.127c-0.014,0.057-0.027,0.113-0.038,0.17c-0.01,0.051-0.016,0.102-0.023,0.154  c-0.007,0.049-0.014,0.099-0.018,0.149c-0.006,0.065-0.008,0.129-0.01,0.194c-0.001,0.03-0.004,0.06-0.004,0.09v21.34l-3.513,2.008  c-0.002,0.001-0.004,0.003-0.007,0.004c-0.004,0.002-0.007,0.004-0.011,0.006c-0.035,0.02-0.068,0.042-0.102,0.064  c-0.023,0.014-0.046,0.028-0.069,0.043c-0.037,0.025-0.073,0.051-0.109,0.077c-0.021,0.016-0.043,0.03-0.064,0.046  c-0.035,0.027-0.069,0.056-0.104,0.085c-0.019,0.016-0.04,0.032-0.059,0.049c-0.033,0.029-0.065,0.06-0.097,0.091  c-0.019,0.018-0.038,0.035-0.055,0.052C4.45,55.282,4.42,55.315,4.39,55.348c-0.017,0.019-0.035,0.037-0.052,0.056  c-0.029,0.033-0.056,0.068-0.084,0.102c-0.016,0.02-0.033,0.039-0.048,0.059c-0.026,0.035-0.051,0.07-0.076,0.106  c-0.015,0.021-0.031,0.042-0.045,0.063c-0.024,0.036-0.046,0.073-0.068,0.109c-0.014,0.022-0.028,0.044-0.041,0.067  c-0.022,0.038-0.041,0.076-0.061,0.114c-0.012,0.023-0.025,0.045-0.037,0.069c-0.019,0.039-0.037,0.08-0.055,0.12  c-0.01,0.023-0.022,0.046-0.031,0.069c-0.017,0.04-0.031,0.08-0.046,0.121c-0.009,0.025-0.019,0.049-0.028,0.074  c-0.014,0.042-0.026,0.084-0.039,0.127c-0.007,0.024-0.016,0.048-0.022,0.073c-0.012,0.044-0.022,0.089-0.032,0.134  c-0.005,0.024-0.012,0.047-0.016,0.07c-0.01,0.047-0.017,0.095-0.024,0.143c-0.003,0.022-0.008,0.043-0.011,0.065  c-0.007,0.053-0.012,0.108-0.016,0.162c-0.001,0.016-0.004,0.032-0.005,0.049c-0.004,0.062-0.006,0.124-0.006,0.187  c0,0.009-0.001,0.018-0.001,0.027v0v0v20.943c0,1.147,0.615,2.207,1.61,2.776l18.226,10.428c0.492,0.282,1.04,0.422,1.589,0.422  c0.554,0,1.109-0.144,1.605-0.432c0.037-0.021,0.072-0.045,0.107-0.067l3.688-2.11l18.041,10.322  c0.501,0.287,1.047,0.423,1.586,0.423c0.64,0,1.269-0.193,1.8-0.554L69.615,89.47l3.826,2.189c0.492,0.282,1.04,0.422,1.589,0.422  c0.554,0,1.109-0.144,1.605-0.432c0.037-0.022,0.073-0.045,0.109-0.068l18.1-10.356c0.996-0.57,1.61-1.629,1.61-2.776V57.517  C96.454,57.445,96.452,57.374,96.447,57.303z M86.809,57.516l-11.781,6.732l-11.779-6.736l11.78-6.733L86.809,57.516z   M60.002,63.027l11.828,6.766v13.575l-11.828-6.767V63.027z M34.973,19.105l11.828,6.766v13.575l-11.828-6.767V19.105z   M53.199,25.868l11.828-6.76v13.565L53.199,39.44V25.868z M50,6.858l11.78,6.736l-11.781,6.732L38.22,13.591L50,6.858z   M28.169,83.361V69.79l11.828-6.76v13.564L28.169,83.361z M24.969,64.248L13.19,57.512l11.78-6.733l11.781,6.736L24.969,64.248z   M9.944,63.027l11.828,6.766v13.574L9.944,76.599V63.027z M49.99,93.327l-13.178-7.54l7.973-4.562c0.996-0.57,1.61-1.629,1.61-2.777  V57.517c0-0.072-0.002-0.143-0.007-0.213c-0.002-0.026-0.006-0.053-0.008-0.079c-0.004-0.044-0.007-0.088-0.013-0.132  c-0.004-0.031-0.01-0.061-0.015-0.092c-0.006-0.039-0.012-0.078-0.02-0.116c-0.006-0.03-0.014-0.059-0.021-0.089  c-0.009-0.038-0.017-0.077-0.027-0.115c-0.008-0.03-0.018-0.059-0.027-0.088c-0.011-0.037-0.022-0.075-0.034-0.112  c-0.01-0.029-0.022-0.057-0.032-0.086c-0.014-0.036-0.026-0.073-0.041-0.109c-0.011-0.027-0.024-0.054-0.037-0.081  c-0.016-0.036-0.032-0.073-0.049-0.108c-0.013-0.026-0.027-0.05-0.04-0.076c-0.019-0.036-0.037-0.072-0.058-0.107  c-0.014-0.024-0.029-0.047-0.043-0.07c-0.022-0.036-0.043-0.071-0.066-0.106c-0.015-0.022-0.031-0.043-0.046-0.064  c-0.025-0.035-0.049-0.07-0.075-0.104c-0.016-0.021-0.033-0.04-0.049-0.06c-0.027-0.034-0.054-0.068-0.083-0.101  c-0.017-0.019-0.035-0.037-0.052-0.056c-0.03-0.032-0.06-0.065-0.091-0.097c-0.018-0.018-0.037-0.035-0.055-0.052  c-0.032-0.031-0.064-0.062-0.098-0.092c-0.019-0.017-0.039-0.032-0.058-0.048c-0.035-0.029-0.069-0.058-0.104-0.085  c-0.021-0.016-0.042-0.03-0.064-0.046c-0.036-0.026-0.071-0.053-0.108-0.077c-0.023-0.015-0.047-0.029-0.07-0.044  c-0.034-0.021-0.066-0.043-0.101-0.063c-0.003-0.002-0.007-0.004-0.011-0.006c-0.002-0.001-0.005-0.003-0.007-0.004L26.558,44.318  c-0.984-0.563-2.192-0.563-3.175,0l-8.315,4.752V33.242l13.507-7.72v9.011c0,1.147,0.614,2.207,1.61,2.776l18.226,10.428  c0.492,0.282,1.041,0.422,1.589,0.422c0.554,0,1.109-0.144,1.605-0.432c0.038-0.022,0.075-0.046,0.112-0.07l18.098-10.354  c0.996-0.57,1.61-1.629,1.61-2.776v-8.999l13.507,7.724v15.819l-8.314-4.754c-0.984-0.563-2.192-0.563-3.175-0.001L55.216,54.734  c-0.004,0.002-0.007,0.004-0.011,0.007c-0.002,0.001-0.005,0.002-0.007,0.004c-0.022,0.013-0.044,0.028-0.066,0.042  c-0.036,0.022-0.073,0.044-0.108,0.067c-0.025,0.017-0.049,0.035-0.073,0.052c-0.033,0.023-0.067,0.047-0.099,0.071  c-0.025,0.019-0.049,0.04-0.073,0.059c-0.03,0.024-0.061,0.048-0.089,0.074c-0.024,0.021-0.047,0.044-0.071,0.066  c-0.027,0.025-0.055,0.051-0.082,0.077c-0.023,0.023-0.045,0.048-0.068,0.072c-0.025,0.027-0.051,0.053-0.075,0.08  c-0.022,0.025-0.043,0.052-0.064,0.078c-0.023,0.028-0.046,0.055-0.068,0.083c-0.021,0.027-0.039,0.055-0.059,0.082  c-0.021,0.029-0.042,0.057-0.062,0.087c-0.019,0.028-0.036,0.057-0.053,0.086c-0.019,0.03-0.038,0.059-0.056,0.09  C54.017,55.94,54.002,55.97,53.986,56c-0.017,0.031-0.034,0.062-0.05,0.093c-0.015,0.03-0.028,0.061-0.042,0.092  c-0.015,0.032-0.03,0.064-0.044,0.097c-0.013,0.031-0.024,0.062-0.035,0.093c-0.013,0.034-0.027,0.067-0.038,0.101  c-0.011,0.031-0.019,0.063-0.029,0.094c-0.011,0.035-0.023,0.07-0.032,0.105c-0.009,0.033-0.016,0.066-0.023,0.099  c-0.008,0.035-0.018,0.069-0.024,0.104c-0.007,0.037-0.013,0.074-0.019,0.111c-0.005,0.032-0.012,0.064-0.016,0.097  c-0.006,0.043-0.009,0.087-0.013,0.13c-0.002,0.027-0.006,0.054-0.008,0.081c-0.004,0.059-0.005,0.119-0.006,0.178  c0,0.012-0.001,0.023-0.001,0.035v0v0v20.943c0,1.147,0.614,2.207,1.61,2.776l7.958,4.553L49.99,93.327z M78.229,83.361V69.79  l11.828-6.76v13.564L78.229,83.361z"></path></g>
</svg>
</g><g opacity="1" transform="rotate(0 349.2328 313.1784)">
<svg width="331.054" height="31.6433" x="349.2328" y="313.1784" version="1.1" preserveAspectRatio="none" viewBox="0.16 -30 317.2 30.32">
  <g transform="matrix(1 0 0 1 0 0)" class="aD6z1nYkhcolor"><path d="M9.12 0L9.12-22.72L0.16-22.72L0.16-28L24.56-28L24.56-22.72L15.60-22.72L15.60 0L9.12 0Z M40.68-21.84Q44.68-21.84 47.14-19.44Q49.60-17.04 49.60-12.32L49.60-12.32L49.60 0L43.36 0L43.36-11.36Q43.36-13.92 42.24-15.18Q41.12-16.44 39-16.44L39-16.44Q36.64-16.44 35.24-14.98Q33.84-13.52 33.84-10.64L33.84-10.64L33.84 0L27.60 0L27.60-29.68L33.84-29.68L33.84-19.28Q35.08-20.52 36.84-21.18Q38.60-21.84 40.68-21.84L40.68-21.84Z M76.56-10.68Q76.56-10.56 76.44-9L76.44-9L60.16-9Q60.60-7 62.24-5.84Q63.88-4.68 66.32-4.68L66.32-4.68Q68-4.68 69.30-5.18Q70.60-5.68 71.72-6.76L71.72-6.76L75.04-3.16Q72 0.32 66.16 0.32L66.16 0.32Q62.52 0.32 59.72-1.10Q56.92-2.52 55.40-5.04Q53.88-7.56 53.88-10.76L53.88-10.76Q53.88-13.92 55.38-16.46Q56.88-19 59.50-20.42Q62.12-21.84 65.36-21.84L65.36-21.84Q68.52-21.84 71.08-20.48Q73.64-19.12 75.10-16.58Q76.56-14.04 76.56-10.68L76.56-10.68ZM65.40-17.12Q63.28-17.12 61.84-15.92Q60.40-14.72 60.08-12.64L60.08-12.64L70.68-12.64Q70.36-14.68 68.92-15.90Q67.48-17.12 65.40-17.12L65.40-17.12Z M104.60-28Q108.32-28 111.06-26.76Q113.80-25.52 115.28-23.24Q116.76-20.96 116.76-17.84L116.76-17.84Q116.76-14.76 115.28-12.46Q113.80-10.16 111.06-8.94Q108.32-7.72 104.60-7.72L104.60-7.72L98.96-7.72L98.96 0L92.48 0L92.48-28L104.60-28ZM104.24-13Q107.16-13 108.68-14.26Q110.20-15.52 110.20-17.84L110.20-17.84Q110.20-20.20 108.68-21.46Q107.16-22.72 104.24-22.72L104.24-22.72L98.96-22.72L98.96-13L104.24-13Z M131.12 0.32Q127.72 0.32 125.02-1.10Q122.32-2.52 120.80-5.04Q119.28-7.56 119.28-10.76L119.28-10.76Q119.28-13.96 120.80-16.48Q122.32-19 125.02-20.42Q127.72-21.84 131.12-21.84L131.12-21.84Q134.52-21.84 137.20-20.42Q139.88-19 141.40-16.48Q142.92-13.96 142.92-10.76L142.92-10.76Q142.92-7.56 141.40-5.04Q139.88-2.52 137.20-1.10Q134.52 0.32 131.12 0.32L131.12 0.32ZM131.12-4.80Q133.52-4.80 135.06-6.42Q136.60-8.04 136.60-10.76L136.60-10.76Q136.60-13.48 135.06-15.10Q133.52-16.72 131.12-16.72L131.12-16.72Q128.72-16.72 127.16-15.10Q125.60-13.48 125.60-10.76L125.60-10.76Q125.60-8.04 127.16-6.42Q128.72-4.80 131.12-4.80L131.12-4.80Z M175.52-21.52L181.04-21.52L173.24 0L167.24 0L162.40-13.36L157.40 0L151.40 0L143.64-21.52L149.52-21.52L154.60-6.96L159.88-21.52L165.16-21.52L170.28-6.96L175.52-21.52Z M204.44-10.68Q204.44-10.56 204.32-9L204.32-9L188.04-9Q188.48-7 190.12-5.84Q191.76-4.68 194.20-4.68L194.20-4.68Q195.88-4.68 197.18-5.18Q198.48-5.68 199.60-6.76L199.60-6.76L202.92-3.16Q199.88 0.32 194.04 0.32L194.04 0.32Q190.40 0.32 187.60-1.10Q184.80-2.52 183.28-5.04Q181.76-7.56 181.76-10.76L181.76-10.76Q181.76-13.92 183.26-16.46Q184.76-19 187.38-20.42Q190-21.84 193.24-21.84L193.24-21.84Q196.40-21.84 198.96-20.48Q201.52-19.12 202.98-16.58Q204.44-14.04 204.44-10.68L204.44-10.68ZM193.28-17.12Q191.16-17.12 189.72-15.92Q188.28-14.72 187.96-12.64L187.96-12.64L198.56-12.64Q198.24-14.68 196.80-15.90Q195.36-17.12 193.28-17.12L193.28-17.12Z M214.56-18.68Q215.68-20.24 217.58-21.04Q219.48-21.84 221.96-21.84L221.96-21.84L221.96-16.08Q220.92-16.16 220.56-16.16L220.56-16.16Q217.88-16.16 216.36-14.66Q214.84-13.16 214.84-10.16L214.84-10.16L214.84 0L208.60 0L208.60-21.52L214.56-21.52L214.56-18.68Z M247.40 0.32Q244 0.32 241.30-1.10Q238.60-2.52 237.08-5.04Q235.56-7.56 235.56-10.76L235.56-10.76Q235.56-13.96 237.08-16.48Q238.60-19 241.30-20.42Q244-21.84 247.40-21.84L247.40-21.84Q250.80-21.84 253.48-20.42Q256.16-19 257.68-16.48Q259.20-13.96 259.20-10.76L259.20-10.76Q259.20-7.56 257.68-5.04Q256.16-2.52 253.48-1.10Q250.80 0.32 247.40 0.32L247.40 0.32ZM247.40-4.80Q249.80-4.80 251.34-6.42Q252.88-8.04 252.88-10.76L252.88-10.76Q252.88-13.48 251.34-15.10Q249.80-16.72 247.40-16.72L247.40-16.72Q245-16.72 243.44-15.10Q241.88-13.48 241.88-10.76L241.88-10.76Q241.88-8.04 243.44-6.42Q245-4.80 247.40-4.80L247.40-4.80Z M270.20-21.96L270.20-21.04L275.72-21.04L275.72-16.24L270.36-16.24L270.36 0L264.12 0L264.12-16.24L260.80-16.24L260.80-21.04L264.12-21.04L264.12-22Q264.12-25.68 266.30-27.84Q268.48-30 272.44-30L272.44-30Q273.84-30 275.10-29.70Q276.36-29.40 277.20-28.84L277.20-28.84L275.56-24.32Q274.48-25.08 273.04-25.08L273.04-25.08Q270.20-25.08 270.20-21.96L270.20-21.96Z M292.52 0.32Q290.88 0.32 289.76-0.80Q288.64-1.92 288.64-3.60L288.64-3.60Q288.64-5.32 289.76-6.38Q290.88-7.44 292.52-7.44L292.52-7.44Q294.16-7.44 295.28-6.38Q296.40-5.32 296.40-3.60L296.40-3.60Q296.40-1.92 295.28-0.80Q294.16 0.32 292.52 0.32L292.52 0.32Z M303.00 0.32Q301.36 0.32 300.24-0.80Q299.12-1.92 299.12-3.60L299.12-3.60Q299.12-5.32 300.24-6.38Q301.36-7.44 303.00-7.44L303.00-7.44Q304.64-7.44 305.76-6.38Q306.88-5.32 306.88-3.60L306.88-3.60Q306.88-1.92 305.76-0.80Q304.64 0.32 303.00 0.32L303.00 0.32Z M313.48 0.32Q311.84 0.32 310.72-0.80Q309.60-1.92 309.60-3.60L309.60-3.60Q309.60-5.32 310.72-6.38Q311.84-7.44 313.48-7.44L313.48-7.44Q315.12-7.44 316.24-6.38Q317.36-5.32 317.36-3.60L317.36-3.60Q317.36-1.92 316.24-0.80Q315.12 0.32 313.48 0.32L313.48 0.32Z"/></g>
</svg>
</g></svg>